<mxfile host="app.diagrams.net" modified="2024-06-03T17:28:50.092Z" agent="Mozilla/5.0 (Windows NT 10.0; Win64; x64) AppleWebKit/537.36 (KHTML, like Gecko) Chrome/125.0.0.0 Safari/537.36" etag="Bm1B5gjvYjS6W1ji8IaO" version="24.4.4" type="device">
  <diagram name="Page-1" id="wJBKhN4EZYpCg_cxHkFn">
    <mxGraphModel dx="2350" dy="807" grid="1" gridSize="10" guides="1" tooltips="1" connect="1" arrows="1" fold="1" page="1" pageScale="1" pageWidth="850" pageHeight="1100" math="0" shadow="0">
      <root>
        <mxCell id="0" />
        <mxCell id="1" parent="0" />
        <mxCell id="Ins9BtrYhF206MYp8nPq-1" value="" style="rounded=0;whiteSpace=wrap;html=1;" vertex="1" parent="1">
          <mxGeometry x="-50" y="290" width="420" height="590" as="geometry" />
        </mxCell>
        <mxCell id="Ins9BtrYhF206MYp8nPq-2" value="" style="shape=crossbar;whiteSpace=wrap;html=1;rounded=1;" vertex="1" parent="1">
          <mxGeometry x="-50" y="260" width="420" height="20" as="geometry" />
        </mxCell>
        <mxCell id="Ins9BtrYhF206MYp8nPq-3" value="3.3528m" style="text;html=1;align=center;verticalAlign=middle;whiteSpace=wrap;rounded=0;" vertex="1" parent="1">
          <mxGeometry x="150" y="240" width="60" height="30" as="geometry" />
        </mxCell>
        <mxCell id="Ins9BtrYhF206MYp8nPq-4" value="" style="rounded=0;whiteSpace=wrap;html=1;fillColor=#f8cecc;strokeColor=#b85450;" vertex="1" parent="1">
          <mxGeometry x="30" y="365" width="240" height="300" as="geometry" />
        </mxCell>
        <mxCell id="Ins9BtrYhF206MYp8nPq-6" value="" style="shape=crossbar;whiteSpace=wrap;html=1;rounded=1;" vertex="1" parent="1">
          <mxGeometry x="30" y="330" width="240" height="20" as="geometry" />
        </mxCell>
        <mxCell id="Ins9BtrYhF206MYp8nPq-7" value="" style="rounded=0;whiteSpace=wrap;html=1;" vertex="1" parent="1">
          <mxGeometry x="-470" y="290" width="420" height="590" as="geometry" />
        </mxCell>
        <mxCell id="Ins9BtrYhF206MYp8nPq-9" value="1.676m" style="text;html=1;align=center;verticalAlign=middle;whiteSpace=wrap;rounded=0;" vertex="1" parent="1">
          <mxGeometry x="120" y="310" width="60" height="30" as="geometry" />
        </mxCell>
        <mxCell id="Ins9BtrYhF206MYp8nPq-10" value="" style="endArrow=none;dashed=1;html=1;rounded=0;entryX=0.5;entryY=0;entryDx=0;entryDy=0;" edge="1" parent="1" target="Ins9BtrYhF206MYp8nPq-4">
          <mxGeometry width="50" height="50" relative="1" as="geometry">
            <mxPoint x="150" y="670" as="sourcePoint" />
            <mxPoint x="200" y="610" as="targetPoint" />
          </mxGeometry>
        </mxCell>
      </root>
    </mxGraphModel>
  </diagram>
</mxfile>
